<svg width="1406" height="544" viewBox="0 0 1406 544" fill="none" xmlns="http://www.w3.org/2000/svg">
<g clip-path="url(#clip0_212_16580)" filter="url(#filter0_f_212_16580)">
<path opacity="0.15" d="M1374.19 237.88C1407.7 274.97 1434.88 339.451 1384.8 384.973C1379.63 389.666 1331.18 432.248 1258.3 426.96C1169.54 420.52 1151.34 350.812 1053.38 332.716C947.298 313.119 885.037 379.425 833.231 359.056C771.971 334.97 764.451 205.071 875.331 149.396C1008.91 82.3255 1284.08 138.151 1374.19 237.88Z" fill="#EBC136"/>
<path opacity="0.15" d="M539.245 429.639C570.307 410.569 604.155 372.148 583.134 333.285C580.966 329.278 560.262 292.654 511.679 283.834C452.505 273.09 423.162 316.52 355.092 311.996C281.375 307.096 257.688 252.301 218.971 257.114C173.189 262.806 135.627 348.21 193.514 404.149C263.248 471.538 455.723 480.917 539.245 429.639Z" fill="#EBC136"/>
<path opacity="0.15" d="M721.575 321.89C706.187 300.799 690.464 260.221 703.947 222.859C705.337 219.007 718.519 183.857 744.878 178.297C776.983 171.526 790.013 216.799 826.481 216.823C865.973 216.849 881.817 163.774 902.122 171.155C926.131 179.883 941.044 267.57 906.945 319.508C865.865 382.075 762.953 378.602 721.575 321.89Z" fill="#EBC136"/>
<path opacity="0.15" d="M709.467 274.802C726.284 264.124 744.622 242.633 733.276 220.936C732.107 218.699 720.931 198.254 694.654 193.363C662.649 187.407 646.745 211.693 609.923 209.218C570.047 206.538 557.27 175.943 536.321 178.661C511.55 181.876 491.171 229.62 522.448 260.828C560.128 298.423 664.247 303.514 709.467 274.802Z" fill="#EBC136"/>
<path opacity="0.15" d="M1433.62 248.365C1451.76 232.046 1471.7 199.494 1459.95 167.192C1458.74 163.861 1447.14 133.43 1419.17 126.595C1385.09 118.269 1367.7 154.965 1328.42 151.946C1285.89 148.678 1272.75 103.066 1250.34 107.534C1223.83 112.818 1201.28 184.751 1234.15 230.934C1273.76 286.569 1384.86 292.244 1433.62 248.365Z" fill="#8047F8"/>
<path opacity="0.15" d="M1445.61 377.852C1459.71 388.804 1475.15 410.725 1465.84 432.622C1464.88 434.88 1455.7 455.511 1433.82 460.261C1407.16 466.047 1393.73 441.312 1363.03 443.533C1329.79 445.938 1319.35 476.841 1301.86 473.922C1281.17 470.471 1263.84 421.932 1289.71 390.552C1320.88 352.749 1407.69 348.404 1445.61 377.852Z" fill="#8047F8"/>
<path opacity="0.15" d="M246.937 136.892C259.507 158.616 271.932 200.056 259.695 237.492C258.433 241.351 246.5 276.558 224.055 281.502C196.717 287.524 186.675 241.405 155.792 240.442C122.347 239.4 107.765 292.665 90.7319 284.678C70.5904 275.234 59.883 186.175 89.8998 134.53C126.06 72.3152 213.139 78.4763 246.937 136.892Z" fill="#EBC136"/>
<path opacity="0.15" d="M888.507 432.947C862.621 413.727 837.462 375.18 863.926 336.528C866.654 332.543 892.434 296.123 939.6 287.62C997.048 277.262 1017.11 320.78 1081.84 316.683C1151.94 312.246 1183.66 257.712 1219.2 262.753C1261.23 268.713 1281.76 354.166 1217.71 409.631C1140.55 476.449 958.112 484.627 888.507 432.947Z" fill="#EBC136"/>
<path opacity="0.15" d="M814.922 399.538C836.564 380.513 859.249 343.904 841.967 310.187C840.185 306.71 823.248 274.989 787.43 269.962C743.805 263.84 724.654 304.687 674.868 304.695C620.953 304.704 600.92 256.808 572.979 263.46C539.939 271.327 516.942 350.444 561.931 397.321C616.129 453.792 756.728 450.695 814.922 399.538Z" fill="#8047F8"/>
<path opacity="0.15" d="M862.472 141.004C903.019 151.666 946.079 171.465 915.336 188.257C912.167 189.989 881.993 205.762 816.11 207.009C735.863 208.528 699.181 186.67 607.369 184.784C507.943 182.742 472.601 206.767 420.852 202.269C359.66 196.95 314.602 155.145 396 132.591C494.058 105.42 753.443 112.335 862.472 141.004Z" fill="#8047F8"/>
<path opacity="0.15" d="M195.139 382.866C214.225 360.714 234.35 318.381 219.454 279.978C217.918 276.018 203.31 239.899 171.98 234.685C133.82 228.335 116.761 275.475 73.1632 276.25C25.9491 277.089 8.74424 222.467 -15.7709 230.526C-44.7595 240.056 -65.4579 331.145 -26.3915 384.214C20.6708 448.144 143.816 442.431 195.139 382.866Z" fill="#8047F8"/>
<g clip-path="url(#clip1_212_16580)">
<path d="M114.218 4.10239C113.893 3.60575 113.419 3.59149 112.879 3.57523C112.818 3.57339 112.756 3.57153 112.694 3.56893C112.646 3.56673 112.593 3.56758 112.538 3.56846C112.319 3.57198 112.063 3.57609 111.934 3.39212C111.784 3.17883 111.799 2.76663 111.81 2.42635C111.814 2.31882 111.817 2.21841 111.815 2.1338C111.794 1.34332 111.75 0.503628 111.445 0.22292C111.215 0.0123098 110.527 0.041487 109.892 0.0683954C109.686 0.0771184 109.486 0.085603 109.309 0.085603H95.796C95.5239 0.085603 95.2387 0.0634489 94.9585 0.0416813C94.4124 -0.000733815 93.8853 -0.0416812 93.511 0.085603C92.9677 0.271231 92.931 1.24667 92.8963 2.16519L92.8945 2.21461C92.8654 2.97288 92.6775 3.55799 92.0547 3.49906C91.3303 3.43161 90.6095 3.41035 90.282 4.06594C89.8952 4.84161 89.975 5.65358 90.1178 7.10792C90.1383 7.31567 90.16 7.53652 90.1818 7.77225H114.426C114.44 7.59995 114.455 7.42986 114.47 7.26253C114.583 5.95406 114.682 4.81402 114.218 4.10239Z" fill="#8047F8"/>
<path fill-rule="evenodd" clip-rule="evenodd" d="M92.0699 9.21467C92.4485 14.3395 92.8231 19.4701 93.1976 24.6009L93.1978 24.604C93.4012 27.3898 93.6045 30.1757 93.8085 32.9606H94.5821C94.6348 33.3965 94.6952 33.9347 94.7588 34.5021C94.8878 35.6539 95.0305 36.9264 95.1504 37.7083H95.2359C96.0239 37.42 101.471 35.0916 101.474 25.8218C101.473 25.7954 101.474 25.7689 101.476 25.7427H100.13C100.065 25.7421 100.002 25.7203 99.9507 25.6808C99.8993 25.6413 99.8624 25.5861 99.8458 25.5238C99.7146 25.1999 99.6089 24.8664 99.5295 24.5264C98.7378 24.9736 98.1091 25.6564 97.733 26.4775C97.376 25.6365 97.3292 24.6983 97.6009 23.8267C97.8727 22.9551 98.4456 22.2057 99.2195 21.7093C99.2295 19.0043 100.242 16.3968 102.066 14.3804L102.095 14.3553C102.148 14.3095 102.216 14.284 102.286 14.2834C102.327 14.2838 102.367 14.2925 102.404 14.309C102.442 14.3257 102.475 14.35 102.503 14.3804C104.348 16.3996 105.355 19.0321 105.324 21.7531C106.112 22.2356 106.697 22.9845 106.969 23.8608C107.241 24.7371 107.183 25.6813 106.804 26.5181C106.43 25.6957 105.801 25.0123 105.008 24.5671C104.959 24.8966 104.87 25.219 104.742 25.527C104.698 25.6583 104.609 25.7427 104.521 25.7427H103.085C103.088 25.7584 103.089 25.7742 103.09 25.7901L103.091 25.7937V25.8014C103.091 25.815 103.091 25.8287 103.091 25.8424C103.11 35.3783 108.902 37.5428 109.39 37.7083H109.557C109.6 36.9572 109.739 35.9208 109.874 34.9104C109.967 34.2142 110.059 33.5302 110.116 32.9606H110.899C111.149 29.4527 111.407 25.9546 111.664 22.4564L111.664 22.4545L111.665 22.4535C111.994 17.9789 112.324 13.5042 112.638 9.0087H92.12C92.0609 9.02024 92.065 9.11685 92.0699 9.21467ZM102.286 14.2834H102.284H102.288H102.286Z" fill="#8047F8"/>
<path d="M121.309 5.6982C121.309 4.43316 121.745 3.45274 122.616 2.75696C123.504 2.04537 124.835 1.68958 126.61 1.68958C127.783 1.68958 128.781 1.80027 129.605 2.02165V5.29498C128.718 5.02615 127.838 4.89174 126.966 4.89174C126.111 4.89174 125.556 4.99453 125.302 5.2001C125.049 5.38985 124.922 5.67449 124.922 6.05401V14.0238C124.922 14.7829 125.516 15.1624 126.705 15.1624C127.909 15.1624 128.9 15.0438 129.676 14.8066V18.0088C128.821 18.246 127.783 18.3646 126.562 18.3646C124.787 18.3646 123.464 18.0167 122.592 17.3209C121.737 16.6251 121.309 15.6447 121.309 14.3796V5.6982Z" fill="#403937"/>
<path d="M136.621 7.95158C136.621 7.35068 136.288 7.05023 135.622 7.05023C134.956 7.05023 134.624 7.35068 134.624 7.95158V14.5457C134.624 15.1466 134.956 15.447 135.622 15.447C136.288 15.447 136.621 15.1466 136.621 14.5457V7.95158ZM131.105 7.83298C131.105 6.63118 131.478 5.6982 132.223 5.03405C132.983 4.35408 134.117 4.0141 135.622 4.0141C137.128 4.0141 138.253 4.35408 138.998 5.03405C139.758 5.6982 140.139 6.63118 140.139 7.83298V14.6643C140.139 15.8661 139.758 16.807 138.998 17.4869C138.253 18.1511 137.128 18.4832 135.622 18.4832C134.117 18.4832 132.983 18.1511 132.223 17.4869C131.478 16.807 131.105 15.8661 131.105 14.6643V7.83298Z" fill="#403937"/>
<path d="M142.449 4.08527C142.449 1.41284 143.86 0.0766296 146.681 0.0766296C147.045 0.0766296 147.481 0.116162 147.988 0.195228V2.94672C147.734 2.9151 147.497 2.89928 147.275 2.89928C146.467 2.89928 146.062 3.2788 146.062 4.03783V4.25131H147.988V7.05024H146.062V18.246H142.449V7.05024H141.094V4.25131H142.449V4.08527Z" fill="#403937"/>
<path d="M149.46 4.08527C149.46 1.41284 150.871 0.0766296 153.692 0.0766296C154.056 0.0766296 154.492 0.116162 154.999 0.195228V2.94672C154.745 2.9151 154.508 2.89928 154.286 2.89928C153.478 2.89928 153.073 3.2788 153.073 4.03783V4.25131H154.999V7.05024H153.073V18.246H149.46V7.05024H148.105V4.25131H149.46V4.08527Z" fill="#403937"/>
<path d="M155.829 14.261V7.83298C155.829 6.63118 156.202 5.6982 156.946 5.03405C157.691 4.35408 158.816 4.0141 160.322 4.0141C163.222 4.0141 164.672 5.28706 164.672 7.83298V12.6481H159.276V13.9764C159.276 14.4508 159.403 14.7908 159.656 14.9964C159.926 15.1861 160.504 15.281 161.392 15.281C162.295 15.281 163.278 15.1229 164.339 14.8066V17.9376C163.23 18.238 162.041 18.3883 160.774 18.3883C157.477 18.3883 155.829 17.0125 155.829 14.261ZM159.276 9.92032H161.368V7.88042C161.368 7.27952 161.019 6.97907 160.322 6.97907C159.625 6.97907 159.276 7.27952 159.276 7.88042V9.92032Z" fill="#403937"/>
<path d="M166.09 14.261V7.83298C166.09 6.63118 166.462 5.6982 167.207 5.03405C167.952 4.35408 169.077 4.0141 170.583 4.0141C173.483 4.0141 174.933 5.28706 174.933 7.83298V12.6481H169.537V13.9764C169.537 14.4508 169.664 14.7908 169.917 14.9964C170.187 15.1861 170.765 15.281 171.653 15.281C172.556 15.281 173.538 15.1229 174.6 14.8066V17.9376C173.491 18.238 172.302 18.3883 171.034 18.3883C167.738 18.3883 166.09 17.0125 166.09 14.261ZM169.537 9.92032H171.629V7.88042C171.629 7.27952 171.28 6.97907 170.583 6.97907C169.886 6.97907 169.537 7.27952 169.537 7.88042V9.92032Z" fill="#403937"/>
<path d="M127.03 26.9797C127.03 25.8119 126.413 25.2281 125.177 25.2281H123.207V35.874H125.177C126.413 35.874 127.03 35.2771 127.03 34.0834V26.9797ZM121.823 24.0214H125.255C126.296 24.0214 127.082 24.2874 127.616 24.8194C128.149 25.3513 128.415 26.065 128.415 26.9602V34.1224C128.415 35.0436 128.155 35.7702 127.635 36.3022C127.115 36.8341 126.335 37.1001 125.294 37.1001H121.823V24.0214Z" fill="#403937"/>
<path d="M130.694 34.2781V28.8675C130.694 27.9463 130.954 27.2132 131.475 26.6683C132.008 26.1104 132.807 25.8314 133.874 25.8314C134.94 25.8314 135.727 26.1104 136.234 26.6683C136.754 27.2132 137.014 27.9463 137.014 28.8675V32.254H132.06V34.2197C132.06 34.8036 132.242 35.2382 132.606 35.5237C132.97 35.8091 133.536 35.9518 134.303 35.9518C135.07 35.9518 135.863 35.8351 136.682 35.6015V36.886C136.032 37.0936 135.259 37.1974 134.361 37.1974C131.917 37.1974 130.694 36.2243 130.694 34.2781ZM132.06 31.1057H135.688V28.8675C135.688 27.6479 135.083 27.0381 133.874 27.0381C132.664 27.0381 132.06 27.6479 132.06 28.8675V31.1057Z" fill="#403937"/>
<path d="M139.385 23.0872H140.77V37.1001H139.385V23.0872Z" fill="#403937"/>
<path d="M144.144 24.7804C143.585 24.7804 143.305 24.482 143.305 23.8852C143.305 23.2883 143.585 22.9899 144.144 22.9899C144.716 22.9899 145.002 23.2883 145.002 23.8852C145.002 24.482 144.716 24.7804 144.144 24.7804ZM143.461 26.1039H144.846V37.1001H143.461V26.1039Z" fill="#403937"/>
<path d="M151.985 26.026H153.389L150.931 37.1001H148.981L146.523 26.026H147.947L149.02 31.1057L149.975 36.127C150.366 33.9732 151.035 30.6062 151.985 26.026Z" fill="#403937"/>
<path d="M154.866 34.2781V28.8675C154.866 27.9463 155.126 27.2132 155.647 26.6683C156.18 26.1104 156.979 25.8314 158.046 25.8314C159.112 25.8314 159.899 26.1104 160.406 26.6683C160.926 27.2132 161.186 27.9463 161.186 28.8675V32.254H156.232V34.2197C156.232 34.8036 156.414 35.2382 156.778 35.5237C157.142 35.8091 157.708 35.9518 158.475 35.9518C159.242 35.9518 160.035 35.8351 160.854 35.6015V36.886C160.204 37.0936 159.431 37.1974 158.533 37.1974C156.089 37.1974 154.866 36.2243 154.866 34.2781ZM156.232 31.1057H159.86V28.8675C159.86 27.6479 159.255 27.0381 158.046 27.0381C156.836 27.0381 156.232 27.6479 156.232 28.8675V31.1057Z" fill="#403937"/>
<path d="M167.146 25.9676H167.633V27.2911H166.97C166.502 27.2911 166.079 27.4143 165.702 27.6609C165.585 27.7387 165.332 27.9139 164.942 28.1864V37.1001H163.557V26.026H164.883V26.8629C164.922 26.837 165.02 26.7656 165.176 26.6488C165.345 26.5321 165.442 26.4672 165.468 26.4542C165.507 26.4283 165.592 26.3764 165.722 26.2985C165.865 26.2207 165.969 26.1752 166.034 26.1623C166.112 26.1363 166.216 26.1039 166.346 26.065C166.541 26.0001 166.808 25.9676 167.146 25.9676Z" fill="#403937"/>
<path d="M173.567 26.026H174.952L171.909 40H170.583L171.187 37.1001H170.504L168.086 26.026H169.49L170.661 31.5339L171.519 36.127C171.779 34.596 172.065 33.0649 172.377 31.5339L173.567 26.026Z" fill="#403937"/>
</g>
</g>
<defs>
<filter id="filter0_f_212_16580" x="-160" y="-160" width="1760" height="864" filterUnits="userSpaceOnUse" color-interpolation-filters="sRGB">
<feFlood flood-opacity="0" result="BackgroundImageFix"/>
<feBlend mode="normal" in="SourceGraphic" in2="BackgroundImageFix" result="shape"/>
<feGaussianBlur stdDeviation="80" result="effect1_foregroundBlur_212_16580"/>
</filter>
<clipPath id="clip0_212_16580">
<rect width="1440" height="544" fill="white"/>
</clipPath>
<clipPath id="clip1_212_16580">
<rect width="85" height="40" fill="white" transform="translate(90)"/>
</clipPath>
</defs>
</svg>
